PathFileType	3	(X/Y/Z)	D:\Vicon Database\Healthy Subjects\S0040\Jan. 30, 2020\Force Plate Walk 1.trc
DataRate	CameraRate	NumFrames	NumMarkers	Units	OrigDataRate	OrigDataStartFrame	OrigNumFrames
100.0	100.0	4	53	mm	100.0	584	322	
Frame#	Time	right_foot_cluster2			right_foot_cluster3			sternum_cluster1			sternum_cluster2			sternum_cluster3			left_asis			right_asis			left_psis			right_psis			sacrum_cluster1			sacrum_cluster2			sacrum_cluster3			left_lat_femoral_epicondyle			left_anterior_thigh15			left_anterior_thigh25			left_anterior_thigh50			left_lateral_thigh25			left_lateral_thigh50			left_thigh_cluster1			left_thigh_cluster2			left_thigh_cluster3			left_fibular_head			left_tibial_tuberosity			left_anterior_shank30			left_lateral_malleolus			left_shank_cluster1			left_shank_cluster2			left_shank_cluster3			left_heel			left_metatarsal2			left_foot_cluster1			left_foot_cluster2			left_foot_cluster3			right_lat_femoral_epicondyle			right_anterior_thigh15			right_anterior_thigh25			right_anterior_thigh50			right_lateral_thigh25			right_lateral_thigh50			right_thigh_cluster1			right_thigh_cluster2			right_thigh_cluster3			right_fibular_head			right_tibial_tuberosity			right_lateral_distal_shank			right_anterior_shank30			right_lateral_malleolus			right_shank_cluster1			right_shank_cluster2			right_shank_cluster3			right_heel			right_metatarsal2			right_foot_cluster1			
		X1	Y1	Z1	X2	Y2	Z2	X3	Y3	Z3	X4	Y4	Z4	X5	Y5	Z5	X6	Y6	Z6	X7	Y7	Z7	X8	Y8	Z8	X9	Y9	Z9	X10	Y10	Z10	X11	Y11	Z11	X12	Y12	Z12	X13	Y13	Z13	X14	Y14	Z14	X15	Y15	Z15	X16	Y16	Z16	X17	Y17	Z17	X18	Y18	Z18	X19	Y19	Z19	X20	Y20	Z20	X21	Y21	Z21	X22	Y22	Z22	X23	Y23	Z23	X24	Y24	Z24	X25	Y25	Z25	X26	Y26	Z26	X27	Y27	Z27	X28	Y28	Z28	X29	Y29	Z29	X30	Y30	Z30	X31	Y31	Z31	X32	Y32	Z32	X33	Y33	Z33	X34	Y34	Z34	X35	Y35	Z35	X36	Y36	Z36	X37	Y37	Z37	X38	Y38	Z38	X39	Y39	Z39	X40	Y40	Z40	X41	Y41	Z41	X42	Y42	Z42	X43	Y43	Z43	X44	Y44	Z44	X45	Y45	Z45	X46	Y46	Z46	X47	Y47	Z47	X48	Y48	Z48	X49	Y49	Z49	X50	Y50	Z50	X51	Y51	Z51	X52	Y52	Z52	X53	Y53	Z53	
584	5.83	-219.33446	118.87447	-189.23602	-216.71761	121.12922	-226.45317	-220.57361	1445.5848	-124.8029	-232.4046	1417.9175	-116.93977	-228.39371	1420.6852	-154.51378	-219.94037	1073.4264	-0.39712265	-200.26082	1076.8992	-247.43777	-50.787922	1084.0406	-38.339077	-39.034206	1083.4269	-155.38713	-33.850376	1140.3981	-103.37543	-27.091446	1115.1609	-114.18783	-28.870062	1110.2753	-74.90583	-154.46127	539.5307	10.456246	-248.38548	618.67621	-43.43277	-269.19507	703.72797	-25.468599	-270.70435	843.02667	0.44161853	-160.28682	691.58771	36.759441	-173.26595	837.6225	69.869774	-166.74492	791.11829	73.58152	-164.28142	762.58057	68.900803	-201.24182	772.12537	70.597473	-150.43108	457.82971	14.745363	-199.84085	444.02893	-43.802761	-131.41187	199.97722	-61.638229	-58.252472	97.422195	-33.929897	-188.87054	389.94769	-73.976303	-188.39629	361.767	-66.563385	-171.88277	366.11594	-100.82011	20.920097	64.245529	-67.350502	-199.78757	61.483662	-69.82972	-140.03581	111.36091	-64.961769	-163.85966	95.31044	-54.520889	-167.65956	99.582603	-92.430222	-306.33936	552.05585	-272.98923	-375.66043	656.79413	-227.8877	-358.76208	742.05048	-222.41658	-300.71048	860.2804	-219.76637	-256.08807	699.94952	-291.2157	-196.95605	836.49023	-308.76633	-209.37181	786.21063	-315.83173	-230.77693	765.48315	-315.96771	-196.3989	750.40784	-306.05991	-283.20502	492.70609	-274.6633	-339.39963	465.24234	-234.77718	-154.30969	259.54486	-244.12634	-207.39061	250.40921	-204.86078	-109.99889	162.57645	-226.04312	-304.67255	406.52042	-175.89861	-287.85852	384.64224	-167.41232	-303.74777	373.34576	-199.47581	-32.605251	160.15497	-180.52611	-233.12386	76.799637	-199.18626	-202.88553	141.36107	-196.75412
585	5.84	-264.43777	117.32048	-191.50609	-261.35577	119.47955	-228.80342	-234.87469	1446.5253	-125.56775	-246.71906	1418.8817	-117.66724	-242.60986	1421.5765	-155.21809	-233.74063	1073.4598	-0.50702119	-214.29675	1078.3667	-247.3324	-65.016769	1084.8829	-39.228096	-52.939728	1084.9224	-156.00146	-47.792908	1141.715	-103.74531	-41.081818	1116.2865	-114.6407	-42.749168	1111.5011	-75.266014	-157.46233	540.32343	10.02648	-253.18909	617.41003	-43.513577	-276.33698	701.9856	-25.255104	-281.01089	841.39252	0.67505777	-166.08784	692.49597	36.201992	-182.39897	837.93329	68.925682	-174.92857	791.66406	72.665184	-171.57686	763.08014	68.334366	-208.87239	771.85248	70.00885	-152.70407	458.55811	14.225185	-201.51375	444.40182	-44.538631	-132.38548	200.69359	-62.305176	-58.866478	98.259682	-34.359756	-190.23128	390.51898	-74.630684	-190.18291	362.49023	-66.924721	-173.25346	366.76944	-101.35861	19.156269	64.424644	-68.536598	-200.21063	61.310734	-70.078117	-140.76048	111.5411	-65.341469	-164.40523	95.307121	-54.914715	-168.3932	99.70829	-92.741318	-325.4151	555.34552	-272.8978	-393.71228	661.80255	-227.34154	-375.57422	746.78973	-221.49944	-315.90884	863.9848	-219.25677	-274.84064	703.64044	-292.38205	-213.0385	839.56812	-310.17389	-227.34154	789.26862	-317.66022	-249.01134	768.82172	-317.34381	-214.67137	753.18628	-308.27936	-304.0405	494.28983	-274.57281	-361.60791	469.76672	-235.26344	-189.6702	253.02553	-244.91696	-243.40245	246.98033	-206.36972	-151.94975	153.15872	-227.29936	-331.74149	408.5755	-176.82961	-316.27405	385.51907	-168.46378	-332.40732	375.57074	-200.82375	-75.232788	144.92595	-181.35063	-280.99802	76.325493	-201.8951	-246.25165	138.57874	-198.80228
586	5.85	-309.65814	116.1544	-194.21683	-306.18222	118.35365	-231.38724	-249.28633	1447.058	-126.47866	-261.09665	1419.4718	-118.40562	-256.83603	1422.0559	-155.95296	-247.58414	1073.2463	-0.60681319	-228.34784	1079.3231	-247.32216	-78.74604	1085.7091	-39.773952	-66.85582	1085.9646	-156.73479	-61.738701	1142.494	-104.21069	-55.004078	1117.3038	-115.15159	-56.974781	1112.0726	-75.901878	-160.59766	541.17969	9.7800016	-258.13809	616.13043	-43.588993	-283.59326	700.18842	-25.041428	-291.30988	839.6402	0.94624567	-172.33575	693.15997	35.714165	-191.5722	838.41534	68.163811	-183.28317	792.2301	72.039665	-179.29515	763.63416	67.718941	-216.74525	771.75604	69.615929	-154.90309	459.31265	13.763382	-203.55432	444.85895	-45.097908	-133.40051	201.42693	-62.899456	-59.595409	99.402061	-34.818283	-191.94495	391.35538	-75.245575	-191.43863	363.35461	-67.480774	-174.85449	367.53653	-101.82299	18.609261	65.460495	-68.934807	-200.74173	61.153664	-70.187302	-141.56989	111.65099	-65.400192	-165.10292	95.360695	-55.134052	-169.12503	99.592842	-93.097321	-343.54214	557.85651	-272.6088	-411.00391	665.9007	-226.66414	-391.73444	750.56372	-220.4621	-330.7876	866.854	-218.74275	-292.97137	706.71381	-293.21539	-229.5231	842.09674	-311.88943	-246.38721	791.94153	-320.44144	-266.84894	771.5993	-318.61707	-232.08447	755.5484	-310.01566	-324.55624	495.10168	-274.64398	-382.98737	473.7728	-235.6497	-225.30345	246.44336	-245.86057	-279.92252	243.73636	-207.9427	-194.76443	144.17401	-228.92894	-358.2196	410.29803	-177.81181	-344.33289	386.21692	-169.46252	-360.61139	377.64136	-202.12898	-118.97094	130.21886	-182.55893	-329.03204	76.627693	-204.92796	-290.04984	136.31427	-201.1059
587	5.86	-355.10242	116.01016	-197.06851	-351.20816	118.10234	-234.23143	-263.70044	1447.1838	-127.27564	-275.53769	1419.6544	-119.14603	-271.18304	1422.2023	-156.6871	-261.37817	1072.6897	-0.78473186	-242.40633	1079.8494	-247.42844	-91.886055	1086.3053	-40.511333	-80.852966	1086.4727	-157.38753	-75.857849	1142.9513	-104.70105	-68.88842	1117.7601	-115.78172	-71.129211	1112.2861	-76.42601	-163.74149	542.04675	9.6538658	-263.17502	614.81097	-43.51936	-290.89737	698.3222	-24.810909	-301.66489	837.71008	1.2684752	-178.34245	693.66919	35.988289	-201.02986	838.72241	67.815018	-191.48424	792.62671	71.900154	-187.28802	764.23413	67.221466	-224.84378	771.58398	69.878639	-156.80965	460.20032	13.697814	-205.00653	444.88821	-45.83313	-135.11769	202.32265	-62.538849	-60.382542	100.49993	-35.113384	-193.5629	391.96442	-75.054367	-192.96475	363.94568	-67.635612	-176.77075	368.36053	-101.97561	18.084473	66.968315	-69.220894	-201.31987	60.929081	-70.226143	-142.47862	111.96643	-65.785561	-165.86758	95.480057	-55.230843	-170.47652	100.42872	-92.613617	-361.1138	559.61591	-272.3446	-427.66122	669.10797	-225.92909	-407.44794	753.38275	-219.35936	-345.63342	868.97809	-218.19688	-310.86032	709.18652	-293.97525	-246.19098	844.08417	-313.64859	-262.26898	793.86432	-320.84143	-284.48471	773.8429	-319.8197	-249.84346	757.41388	-311.96515	-344.2085	495.32819	-274.49078	-403.8223	477.23788	-235.88226	-261.74323	240.17131	-247.20389	-316.63248	240.86125	-209.57442	-238.3317	135.95418	-230.86543	-384.02371	412.08984	-178.72913	-371.79254	387.06845	-170.38187	-388.28107	379.70749	-203.30728	-163.95282	116.45199	-184.04619	-377.11719	77.943939	-208.20888	-334.10709	134.81438	-203.6541
